<svg width="16" height="15" viewBox="0 0 16 15" fill="none" xmlns="http://www.w3.org/2000/svg">
<path d="M0 3.00001C0 1.73764 1.02335 0.714294 2.28571 0.714294H13.7143C14.9767 0.714294 16 1.73764 16 3.00001V9.42858C16 10.6909 14.9767 11.7143 13.7143 11.7143H6.18432C5.88122 11.7143 5.59053 11.8348 5.37621 12.049L2.58529 14.8399C2.3693 15.0559 2 14.903 2 14.5975V12.3809C2 12.0128 1.70152 11.7143 1.33334 11.7143C0.596954 11.7143 0 11.1174 0 10.381V3.00001ZM7 4.71429H5V6.71429H6V7.71429C6.14063 7.71429 6.27083 7.68825 6.39063 7.63617C6.51041 7.58409 6.61458 7.51377 6.70312 7.42523C6.79167 7.33669 6.86458 7.22992 6.92188 7.10492C6.97917 6.97992 7.00521 6.84971 7 6.71429V4.71429ZM11 4.71429H9V6.71429H10V7.71429C10.1406 7.71429 10.2708 7.68825 10.3906 7.63617C10.5104 7.58409 10.6146 7.51377 10.7031 7.42523C10.7917 7.33669 10.8646 7.22992 10.9219 7.10492C10.9792 6.97992 11.0052 6.84971 11 6.71429V4.71429Z" fill="#9A9A9A"/>
</svg>
